<svg
  width="1200"
  height="630"
  viewBox="0 0 1200 630"
  xmlns="http://www.w3.org/2000/svg"
>
  <!-- Background -->
  <defs>
    <linearGradient id="bg" x1="0" y1="0" x2="1" y2="1">
      <stop offset="0%" stop-color="#6B5BFF" />
      <stop offset="100%" stop-color="#4B3FD6" />
    </linearGradient>
  </defs>

  <rect width="1200" height="630" rx="48" fill="url(#bg)" />

  <!-- Folder Icon -->
  <g transform="translate(180 210) scale(1.2)">
    <path
      d="M20 40h220c11 0 20 9 20 20v120c0 11-9 20-20 20H20c-11 0-20-9-20-20V60c0-11 9-20 20-20z"
      fill="#FFFFFF"
      opacity="0.95"
    />
    <path
      d="M20 20h80l20 20h120c11 0 20 9 20 20v20H0V40c0-11 9-20 20-20z"
      fill="#FFFFFF"
    />

  </g>

  <!-- Text -->
  <text
    x="520"
    y="300"
    fill="#FFFFFF"
    font-size="72"
    font-family="Inter, Segoe UI, Helvetica, Arial, sans-serif"
    font-weight="700"
  >
    md-structure-cli
  </text>

  <text
    x="520"
    y="360"
    fill="#E0E0FF"
    font-size="32"
    font-family="Inter, Segoe UI, Helvetica, Arial, sans-serif"
  >
    Generate clean Markdown directory structures
  </text>
</svg>
